<svg id="Слой_1" data-name="Слой 1" xmlns="http://www.w3.org/2000/svg" viewBox="0 0 125 50"><defs><style>.cls-1,.cls-2{fill:#009fe3;}.cls-1,.cls-4{stroke:#009fe3;}.cls-1,.cls-4,.cls-5{stroke-miterlimit:10;}.cls-3{fill:#fff;}.cls-4,.cls-5{fill:none;}.cls-5{stroke:#fff;}</style></defs><title>Монтажная область 1</title><rect class="cls-1" x="25.07" y="25" width="71.52" height="24.24"/><path class="cls-2" d="M35.47,19.39A6.2,6.2,0,0,1,33.13,19a5.36,5.36,0,0,1-1.85-1.25A5.75,5.75,0,0,1,30,15.83a6.21,6.21,0,0,1-.43-2.37A6.21,6.21,0,0,1,30,11.09a6,6,0,0,1,1.24-1.88A5.61,5.61,0,0,1,33.15,8a6.13,6.13,0,0,1,2.34-.44A6,6,0,0,1,38,8a4.82,4.82,0,0,1,1.88,1.44l-1.31,1.3a4.12,4.12,0,0,0-1.35-1,3.72,3.72,0,0,0-1.59-.34A4.18,4.18,0,0,0,34,9.7a3.68,3.68,0,0,0-1.24.84,4.14,4.14,0,0,0-.83,1.29,4.58,4.58,0,0,0,0,3.26,3.92,3.92,0,0,0,.83,1.29,3.68,3.68,0,0,0,1.24.84,4,4,0,0,0,1.57.3,3.88,3.88,0,0,0,1.59-.34,4.19,4.19,0,0,0,1.35-1l1.31,1.3A4.94,4.94,0,0,1,38,18.9,6,6,0,0,1,35.47,19.39Z"/><path class="cls-2" d="M41.73,19.23V7.69h9.74V19.23h-2V9l.47.53H43.28L43.75,9V19.23Z"/><path class="cls-2" d="M56.58,17.42h6.2v1.81H54.55V7.69h8V9.51h-6Zm-.15-4.93h5.46v1.76H56.43Z"/><path class="cls-2" d="M65.06,19.23V7.69h2V19.23Zm1.41-4.86V12.54h3.68v1.83Zm4-.68-1.87-.26,3.75-5.74h2.16Zm1.88,5.54L68.6,13.61l1.65-1,4.37,6.67Z"/><path class="cls-2" d="M78.22,19.23V9l.48.53H74.59V7.69h9.29V9.51H79.77L80.22,9V19.23Z"/><path class="cls-2" d="M85.63,19.23V7.69h4.52a5.89,5.89,0,0,1,2.5.49,3.53,3.53,0,0,1,1.61,1.41,4.11,4.11,0,0,1,.57,2.21A4,4,0,0,1,94.26,14a3.73,3.73,0,0,1-1.61,1.42,5.74,5.74,0,0,1-2.5.5H86.78l.89-1v4.32Zm2-4.09-.89-1.05h3.28a3,3,0,0,0,2-.6,2.16,2.16,0,0,0,.68-1.69,2.14,2.14,0,0,0-.68-1.69,3,3,0,0,0-2-.6H86.78l.89-1.06Z"/><path class="cls-3" d="M32.73,41.74V30.2H40.2l0,1.81H34.27l.47-.51V41.74Z"/><path class="cls-3" d="M39.18,41.74,44.12,30.2h2l4.95,11.54H48.93L44.7,31.34h.81l-4.25,10.4Zm2.27-2.67L42,37.39h5.91l.55,1.68Z"/><path class="cls-3" d="M52.46,40.62,53.12,39a5.51,5.51,0,0,0,1.55.78,6.24,6.24,0,0,0,1.67.29,4.44,4.44,0,0,0,1.49-.21,2.54,2.54,0,0,0,1.1-.65,1.46,1.46,0,0,0,.42-1.06,1.29,1.29,0,0,0-.6-1.15,3,3,0,0,0-1.66-.39H54.55V35H57a2.36,2.36,0,0,0,1.43-.38,1.4,1.4,0,0,0,.18-2,2.11,2.11,0,0,0-.91-.54,4.28,4.28,0,0,0-1.29-.18,5.56,5.56,0,0,0-1.48.21,5.42,5.42,0,0,0-1.48.66L52.78,31A6.94,6.94,0,0,1,55,30.19a7.76,7.76,0,0,1,2.19-.12,5.78,5.78,0,0,1,1.92.51,3.81,3.81,0,0,1,1.37,1.07A2.51,2.51,0,0,1,61,33.23a2.63,2.63,0,0,1-1.52,2.45,3.77,3.77,0,0,1-1.7.36l.07-.55a4.53,4.53,0,0,1,1.92.38A2.88,2.88,0,0,1,61,36.93a2.81,2.81,0,0,1,.44,1.58A2.77,2.77,0,0,1,61,40a3.25,3.25,0,0,1-1.12,1.09,5.54,5.54,0,0,1-1.62.64,7.57,7.57,0,0,1-3.91-.2A7.49,7.49,0,0,1,52.46,40.62Z"/><path class="cls-3" d="M79.85,41.74V30.2h4.91a4.81,4.81,0,0,1,2.9.77,2.88,2.88,0,0,1,.06,4.38,4.18,4.18,0,0,1-2.63.77l.3-.58a4.61,4.61,0,0,1,2.84.76,2.6,2.6,0,0,1,1,2.22,2.87,2.87,0,0,1-1,2.37,4.92,4.92,0,0,1-3.12.85Zm2-6.63H84.6a2.36,2.36,0,0,0,1.51-.41,1.69,1.69,0,0,0,0-2.44,2.42,2.42,0,0,0-1.51-.41H81.87Zm0,5H85a2.61,2.61,0,0,0,1.62-.42,1.56,1.56,0,0,0,.54-1.31,1.5,1.5,0,0,0-.54-1.26A2.61,2.61,0,0,0,85,36.68H81.87Z"/><rect class="cls-4" x="25.07" y="0.76" width="71.52" height="48.49" rx="5.67"/><path class="cls-3" d="M73.82,44.87v-.71L76,42a3,3,0,0,0,.4-.48,1.18,1.18,0,0,0,.18-.38,1.39,1.39,0,0,0,0-.33.78.78,0,0,0-.26-.62A1.25,1.25,0,0,0,75.6,40a1.72,1.72,0,0,0-.72.15,1.59,1.59,0,0,0-.56.45L73.61,40a2.19,2.19,0,0,1,.87-.71A3,3,0,0,1,75.7,39a2.52,2.52,0,0,1,1,.2,1.62,1.62,0,0,1,.68.58,1.46,1.46,0,0,1,.25.87,2.6,2.6,0,0,1-.07.56,2.18,2.18,0,0,1-.27.59,4.37,4.37,0,0,1-.57.69l-1.88,1.86-.22-.4h3.22v.9Z"/><rect class="cls-5" x="62.35" y="28.91" width="16.5" height="17.34"/><path class="cls-3" d="M70.06,41.89a3.6,3.6,0,0,1-1.68-.41,4.07,4.07,0,0,1-1.33-1.16,5.75,5.75,0,0,1-.88-1.75,7.86,7.86,0,0,1,0-4.37,5.64,5.64,0,0,1,.88-1.75,4.16,4.16,0,0,1,1.33-1.15,3.43,3.43,0,0,1,1.68-.41,3.48,3.48,0,0,1,1.66.4,3.93,3.93,0,0,1,1.33,1.15,5.73,5.73,0,0,1,.87,1.75,7.93,7.93,0,0,1,0,4.39,5.85,5.85,0,0,1-.87,1.75,4,4,0,0,1-1.33,1.16A3.6,3.6,0,0,1,70.06,41.89Zm0-1.74a2.12,2.12,0,0,0,1.08-.28,2.54,2.54,0,0,0,.86-.78,4,4,0,0,0,.57-1.19,5.15,5.15,0,0,0,.21-1.51,5.46,5.46,0,0,0-.2-1.51,4.17,4.17,0,0,0-.57-1.2,2.92,2.92,0,0,0-.87-.78,2.22,2.22,0,0,0-1.08-.27,2.3,2.3,0,0,0-1.1.27,2.71,2.71,0,0,0-.87.79,4.25,4.25,0,0,0-.58,1.19,5.5,5.5,0,0,0,0,3,4.32,4.32,0,0,0,.58,1.2,2.57,2.57,0,0,0,.87.78A2.2,2.2,0,0,0,70.06,40.15Z"/></svg>