<?xml version="1.0" encoding="UTF-8"?>
<svg width="60px" height="16px" viewBox="0 0 60 16" version="1.1" xmlns="http://www.w3.org/2000/svg" xmlns:xlink="http://www.w3.org/1999/xlink">
    <!-- Generator: Sketch 46.2 (44496) - http://www.bohemiancoding.com/sketch -->
    <title>Group 2</title>
    <desc>Created with Sketch.</desc>
    <defs></defs>
    <g id="Page-1" stroke="none" stroke-width="1" fill="none" fill-rule="evenodd">
        <g id="Desk" transform="translate(-25.000000, -57.000000)">
            <g id="Group-2" transform="translate(25.000000, 57.000000)">
                <g id="Group">
                    <polygon id="Fill-1" fill="#92CFAE" points="0 0 0 14.9333333 14.9333333 0"></polygon>
                    <polygon id="Fill-2" fill="#2A8288" points="1.06666667 16 16 16 16 1.06666667"></polygon>
                </g>
                <path d="M24.3882539,7.65316916 C26.1245715,7.65316916 27.047619,6.80287418 27.047619,5.21416515 L27.047619,5.12440322 C27.047619,3.42381327 26.0805077,2.75252777 24.3882539,2.75252777 L22.5859679,2.75252777 L22.5859679,7.65316916 L24.3882539,7.65316916 Z M19.047619,0 L24.4761268,0 C28.3002536,0 30.4761905,1.72296613 30.4761905,5.10228424 L30.4761905,5.19153177 C30.4761905,8.57059268 28.1685716,10.1819351 24.5859043,10.1819351 L22.5859679,10.1819351 L22.5859679,16 L19.047619,16 L19.047619,0 Z" id="Fill-3" fill="#000000"></path>
                <path d="M37.5202402,13.2474722 C39.2237928,13.2474722 40.0864396,12.486682 40.0864396,11.0319729 L40.0864396,10.9427253 C40.0864396,9.51039239 39.2237928,8.72722596 37.4340254,8.72722596 L35.4500876,8.72722596 L35.4500876,13.2474722 L37.5202402,13.2474722 Z M37.6496872,16 L32,16 L32,0 L42.0486363,0 L42.0486363,2.81965632 L35.4718287,2.81965632 L35.4500876,6.17608385 L37.7573931,6.17608385 C41.3154365,6.17608385 43.4285714,7.76505007 43.4285714,10.9648443 L43.4285714,11.0546062 C43.4285714,14.1872719 41.4663747,16 37.6496872,16 L37.6496872,16 Z" id="Fill-5" fill="#000000"></path>
                <polygon id="Fill-8" fill="#000000" points="46 0.0223449339 49.7152768 0.0223449339 49.7152768 6.90509824 55.4485877 0 59.3932288 0 52.9029891 7.57544626 59.7142857 16 55.3797518 16 49.7152768 8.82676255 49.7152768 16 46 16"></polygon>
            </g>
        </g>
    </g>
</svg>